<?xml version="1.0" encoding="utf-8"?>
<!-- Generator: Adobe Illustrator 18.0.0, SVG Export Plug-In . SVG Version: 6.00 Build 0)  -->
<!DOCTYPE svg PUBLIC "-//W3C//DTD SVG 1.1//EN" "http://www.w3.org/Graphics/SVG/1.1/DTD/svg11.dtd">
<svg version="1.1" id="Layer_1" xmlns="http://www.w3.org/2000/svg" xmlns:xlink="http://www.w3.org/1999/xlink" x="0px" y="0px"
	 viewBox="0 0 40.7 14.5" enable-background="new 0 0 40.7 14.5" xml:space="preserve">
<g>
	<path d="M8.2,5.8c0.2,0,0.4,0.1,0.5,0.2c0.1,0.1,0.2,0.3,0.2,0.5v3.1c0,0.5-0.1,1-0.3,1.5c-0.2,0.5-0.5,0.9-0.8,1.2
		c-0.3,0.3-0.8,0.6-1.2,0.8c-0.5,0.2-1,0.3-1.5,0.3c-0.5,0-1-0.1-1.5-0.3c-0.5-0.2-0.9-0.5-1.2-0.8c-0.3-0.3-0.6-0.8-0.8-1.2
		c-0.2-0.5-0.3-1-0.3-1.5V6.6c0-0.2,0.1-0.4,0.2-0.5S1.8,5.8,2,5.8S2.4,5.9,2.5,6s0.2,0.3,0.2,0.5v3.1c0,0.3,0.1,0.6,0.2,0.9
		c0.1,0.3,0.3,0.5,0.5,0.7c0.2,0.2,0.5,0.4,0.7,0.5C4.5,12,4.8,12,5.1,12C5.4,12,5.7,12,6,11.9c0.3-0.1,0.5-0.3,0.8-0.5
		s0.4-0.5,0.5-0.7c0.1-0.3,0.2-0.6,0.2-0.9h0V6.6c0-0.2,0.1-0.4,0.2-0.5C7.8,5.9,8,5.8,8.2,5.8z"/>
	<path d="M14,6c0.1,0.1,0.2,0.3,0.2,0.5c0,0.2-0.1,0.4-0.2,0.5c-0.1,0.1-0.3,0.2-0.5,0.2h-0.1c-0.3,0-0.6,0.1-0.9,0.2
		C12.2,7.7,12,7.8,11.8,8c-0.2,0.2-0.4,0.5-0.5,0.7c-0.1,0.3-0.2,0.6-0.2,0.9v3.1c0,0.2-0.1,0.4-0.2,0.5c-0.1,0.1-0.3,0.2-0.5,0.2
		c-0.2,0-0.4-0.1-0.5-0.2c-0.1-0.1-0.2-0.3-0.2-0.5V9.7c0-0.5,0.1-1,0.3-1.5c0.2-0.5,0.5-0.9,0.8-1.2c0.3-0.3,0.7-0.6,1.2-0.8
		s0.9-0.3,1.5-0.3h0.1h0h0C13.7,5.8,13.9,5.9,14,6z"/>
	<path d="M22.9,9.6c0,0.3,0,0.6-0.1,1c-0.1,0.3-0.2,0.6-0.3,0.9c-0.1,0.3-0.3,0.5-0.5,0.8c-0.2,0.2-0.5,0.5-0.7,0.6
		c-0.6,0.4-1.2,0.6-1.9,0.7c-0.7,0.1-1.3-0.1-1.9-0.4c-0.3-0.1-0.6-0.3-0.8-0.5c-0.3-0.2-0.5-0.5-0.7-0.7c-0.2-0.3-0.3-0.5-0.5-0.9
		c-0.1-0.3-0.2-0.6-0.2-1c0-0.1,0-0.1,0-0.2s0-0.1,0-0.2V9.6V4.7c0-0.2,0.1-0.4,0.2-0.5c0.1-0.1,0.3-0.2,0.5-0.2
		c0.2,0,0.4,0.1,0.5,0.2c0.1,0.1,0.2,0.3,0.2,0.5v2v0C17.1,6.3,17.5,6.1,18,6c0.5-0.1,1-0.2,1.5-0.1c0.5,0.1,1,0.2,1.4,0.5
		c0.4,0.3,0.8,0.6,1.1,1c0.2,0.3,0.4,0.7,0.6,1.1C22.8,8.8,22.9,9.2,22.9,9.6z M21,11c0.3-0.4,0.5-1,0.4-1.5c0-0.3-0.1-0.6-0.2-0.8
		C21,8.4,20.9,8.2,20.7,8c-0.1-0.1-0.2-0.2-0.3-0.3c-0.1-0.1-0.2-0.1-0.4-0.2c-0.3-0.1-0.6-0.2-0.9-0.2c-0.3,0-0.6,0.1-0.9,0.2
		c-0.3,0.1-0.6,0.3-0.8,0.6c-0.2,0.2-0.4,0.5-0.5,0.8c-0.1,0.4-0.2,0.8-0.1,1.2c0.1,0.4,0.3,0.8,0.5,1.1c0.2,0.3,0.5,0.4,0.8,0.6
		c0.1,0,0.1,0.1,0.2,0.1c0.1,0,0.2,0.1,0.2,0.1c-0.1,0-0.1,0-0.2-0.1c-0.1,0-0.1-0.1-0.2-0.1c0.5,0.2,1,0.3,1.6,0.1
		c0.3-0.1,0.5-0.2,0.7-0.3C20.6,11.5,20.8,11.3,21,11z"/>
	<path d="M31.4,9.7c0,0.2-0.1,0.4-0.2,0.5c-0.1,0.1-0.3,0.2-0.5,0.2h-5.3c0,0.1,0.1,0.2,0.1,0.3c0,0.1,0.1,0.2,0.1,0.2
		c0,0.1,0.1,0.1,0.1,0.2c0-0.1-0.1-0.1-0.1-0.2c0-0.1-0.1-0.1-0.1-0.2c0.1,0.2,0.3,0.4,0.5,0.6c0.2,0.2,0.4,0.3,0.7,0.4
		c0.3,0.1,0.6,0.2,0.9,0.2h0c0.2,0,0.4,0.1,0.5,0.2c0.1,0.1,0.2,0.3,0.2,0.5c0,0.2-0.1,0.4-0.2,0.5c-0.1,0.1-0.3,0.2-0.5,0.2
		c0,0-0.1,0-0.1,0s-0.1,0-0.1,0c-0.3,0-0.7-0.1-1-0.2c-0.3-0.1-0.6-0.3-0.9-0.4c-0.3-0.2-0.5-0.4-0.8-0.6c-0.2-0.2-0.4-0.5-0.6-0.8
		c-0.3-0.6-0.4-1.2-0.4-1.9c0-0.7,0.2-1.3,0.6-1.9c0,0,0.1-0.1,0.1-0.1c0-0.1,0.1-0.1,0.1-0.2c0.3-0.4,0.7-0.7,1.1-1
		c0.4-0.3,0.9-0.4,1.4-0.5c0.6-0.1,1.2,0,1.8,0.1c0.6,0.2,1.1,0.5,1.5,1c0.4,0.4,0.6,0.8,0.8,1.2C31.3,8.7,31.4,9.1,31.4,9.7
		L31.4,9.7L31.4,9.7z M26.2,7.7C26,7.8,25.8,8,25.6,8.2c-0.2,0.2-0.3,0.5-0.4,0.7h4.5c0-0.1-0.1-0.2-0.2-0.4C29.4,8.3,29.2,8,29,7.8
		c-0.3-0.2-0.6-0.4-0.9-0.4c-0.3-0.1-0.6-0.1-1-0.1C26.8,7.4,26.5,7.5,26.2,7.7z"/>
</g>
<g>
	<g>
		<path fill="#6DA03C" d="M37.2,5.6c0.5,0.2,0.9,0.5,1.3,0.9c0.4,0.4,0.7,0.8,0.9,1.3c0.2,0.5,0.3,1,0.3,1.6c0,0.6-0.1,1.1-0.3,1.6
			c-0.2,0.5-0.5,0.9-0.9,1.3c-0.4,0.4-0.8,0.7-1.3,0.9c-0.5,0.2-1,0.3-1.6,0.3h-0.2h-2.2c-0.3,0-0.5-0.1-0.7-0.3
			c-0.2-0.2-0.3-0.4-0.3-0.7c0-0.3,0.1-0.5,0.3-0.7c0.2-0.2,0.4-0.3,0.7-0.3h2.2h0.2c0.3,0,0.6-0.1,0.8-0.2c0.3-0.1,0.5-0.3,0.7-0.5
			c0.2-0.2,0.3-0.4,0.5-0.7c0.1-0.3,0.2-0.5,0.2-0.8c0-0.3-0.1-0.6-0.2-0.8c-0.1-0.3-0.3-0.5-0.5-0.7c-0.2-0.2-0.4-0.3-0.7-0.5
			c-0.3-0.1-0.5-0.2-0.8-0.2h-2.2h-0.1h-0.1c-0.3,0-0.5-0.1-0.7-0.3c-0.2-0.2-0.3-0.4-0.3-0.7V2.2c0-0.3,0.1-0.5,0.3-0.7
			c0.2-0.2,0.4-0.3,0.7-0.3h2.5c0.3,0,0.5,0.1,0.7,0.3c0.2,0.2,0.3,0.4,0.3,0.7c0,0.3-0.1,0.5-0.3,0.7c-0.2,0.2-0.4,0.3-0.7,0.3
			h-1.5v2.1h1.4C36.1,5.3,36.6,5.4,37.2,5.6z"/>
	</g>
	<rect x="32.1" y="4.2" fill="#FFFFFF" width="4" height="1.1"/>
</g>
</svg>
