<?xml version="1.0" encoding="utf-8"?>
<!-- Generator: Adobe Illustrator 18.0.0, SVG Export Plug-In . SVG Version: 6.00 Build 0)  -->
<!DOCTYPE svg PUBLIC "-//W3C//DTD SVG 1.1//EN" "http://www.w3.org/Graphics/SVG/1.1/DTD/svg11.dtd">
<svg version="1.1" id="Layer_1" xmlns="http://www.w3.org/2000/svg" xmlns:xlink="http://www.w3.org/1999/xlink" x="0px" y="0px"
	 viewBox="0 0 13.7 11.9" enable-background="new 0 0 13.7 11.9" xml:space="preserve">
<g>
	<path d="M8.2,3.2c0.2,0,0.4,0.1,0.5,0.2c0.1,0.1,0.2,0.3,0.2,0.5V7c0,0.5-0.1,1-0.3,1.5C8.4,9,8.2,9.4,7.8,9.8
		c-0.3,0.3-0.8,0.6-1.2,0.8c-0.5,0.2-1,0.3-1.5,0.3c-0.5,0-1-0.1-1.5-0.3c-0.5-0.2-0.9-0.5-1.2-0.8C2,9.4,1.7,9,1.5,8.5
		C1.3,8.1,1.2,7.6,1.2,7V3.9c0-0.2,0.1-0.4,0.2-0.5S1.8,3.2,2,3.2s0.4,0.1,0.5,0.2s0.2,0.3,0.2,0.5V7c0,0.3,0.1,0.6,0.2,0.9
		C3,8.2,3.2,8.5,3.4,8.7c0.2,0.2,0.5,0.4,0.8,0.5c0.3,0.1,0.6,0.2,0.9,0.2c0.3,0,0.6-0.1,0.9-0.2c0.3-0.1,0.5-0.3,0.8-0.5
		S7.1,8.2,7.3,8C7.4,7.7,7.5,7.4,7.5,7h0V3.9c0-0.2,0.1-0.4,0.2-0.5C7.8,3.2,8,3.2,8.2,3.2z"/>
</g>
<g>
	<g>
		<path fill="#6DA03C" d="M10.6,4.3c0.4,0.2,0.8,0.4,1.1,0.7c0.3,0.3,0.6,0.7,0.7,1.1c0.2,0.4,0.3,0.9,0.3,1.3s-0.1,0.9-0.3,1.3
			c-0.2,0.4-0.4,0.8-0.7,1.1c-0.3,0.3-0.7,0.6-1.1,0.7c-0.4,0.2-0.9,0.3-1.3,0.3H9.1H7.3c-0.2,0-0.4-0.1-0.6-0.2
			c-0.2-0.2-0.2-0.4-0.2-0.6c0-0.2,0.1-0.4,0.2-0.6c0.2-0.2,0.4-0.2,0.6-0.2h1.8h0.2c0.2,0,0.5,0,0.7-0.1c0.2-0.1,0.4-0.2,0.6-0.4
			c0.2-0.2,0.3-0.3,0.4-0.6C11,8,11.1,7.7,11.1,7.5c0-0.2,0-0.5-0.1-0.7c-0.1-0.2-0.2-0.4-0.4-0.6c-0.2-0.2-0.3-0.3-0.6-0.4
			C9.8,5.8,9.6,5.7,9.3,5.7H7.5H7.5H7.3c-0.2,0-0.4-0.1-0.6-0.2C6.6,5.3,6.5,5.1,6.5,4.9V1.5c0-0.2,0.1-0.4,0.2-0.6
			c0.2-0.2,0.4-0.2,0.6-0.2h2.1c0.2,0,0.4,0.1,0.6,0.2c0.2,0.2,0.2,0.4,0.2,0.6c0,0.2-0.1,0.4-0.2,0.6C9.9,2.3,9.7,2.4,9.4,2.4H8.2
			v1.7h1.1C9.8,4.1,10.2,4.2,10.6,4.3z"/>
	</g>
	<rect x="32.1" y="3.2" fill="#FFFFFF" width="3.3" height="0.9"/>
</g>
</svg>
